# xmcd
#
# Track frame offsets:
#       150
#       12917
#       35578
#       50449
#       64448
#       90815
#       102557
#       128795
#       145349
#       169810
#       202731
#
# Disc length: 3131 seconds
#
# Revision: 2
# Processed by: cddbd v1.5.2PL0 Copyright (c) Steve Scherf et al.
# Submitted via: WaveLab 6.11
#
DISCID=930c390b
DTITLE=Gary Moore - Close As You Get
DYEAR=2007
DGENRE=Blues Rock
TTITLE0=If The Devil Made Whisky
TTITLE1=Trouble At Home
TTITLE2=Thirty Days
TTITLE3=Hard Times
TTITLE4=Have You Heard
TTITLE5=Eyesight To The Blind
TTITLE6=Evenin'
TTITLE7=Nowhere Fast
TTITLE8=Chekin' Up On My Baby
TTITLE9=I Had A Dream
TTITLE10=Sundown
EXTD=
EXTT0=
EXTT1=
EXTT2=
EXTT3=
EXTT4=
EXTT5=
EXTT6=
EXTT7=
EXTT8=
EXTT9=
EXTT10=
PLAYORDER=
